<svg width="173" height="68" viewBox="0 0 173 68" fill="none" xmlns="http://www.w3.org/2000/svg">
<g clip-path="url(#clip0_14378_625)">
<path d="M89.7958 44.4229L80.3078 23.0066H86.8013L92.0054 36.1325L97.578 23.0066H103.796L94.2618 44.4229H89.794H89.7958Z" fill="white"/>
<path d="M104.58 37.7447C104.58 34.06 107.527 31.6657 111.673 31.6657H116.278C117.384 31.6657 118.074 31.0674 118.074 30.0536C118.074 29.0398 116.739 27.5665 114.021 27.5665C111.672 27.5665 110.152 28.856 109.415 30.4222L105.27 27.7512C106.605 24.8955 109.692 22.5012 114.021 22.5012C120.514 22.5012 123.647 27.015 123.647 31.39V44.1932H118.304V42.719C117.429 43.6859 115.587 44.6997 112.731 44.6997C107.665 44.6997 104.58 41.5682 104.58 37.7456V37.7447ZM118.028 36.0867V35.81H112.731C111.396 35.81 110.475 36.6391 110.475 37.8826C110.475 39.1262 111.581 40.0931 113.514 40.0931C116.324 40.0931 118.028 38.2971 118.028 36.0867Z" fill="white"/>
<path d="M126.363 33.5995C126.363 27.5204 131.199 22.5002 137.922 22.5002C142.39 22.5002 145.89 24.6648 147.778 27.889L142.989 31.0204C142.114 29.2704 140.271 27.9809 137.922 27.935C134.652 27.9809 132.35 30.468 132.35 33.5995C132.35 36.7309 134.652 39.218 137.922 39.2649C140.087 39.2189 141.883 38.1132 142.805 36.5011L147.594 39.5866C145.706 42.672 142.252 44.6987 137.922 44.6987C131.198 44.6987 126.363 39.6785 126.363 33.5995Z" fill="white"/>
<path d="M149.115 33.5995C149.115 27.5204 153.951 22.5002 160.674 22.5002C167.398 22.5002 172.234 27.5204 172.234 33.5995C172.234 39.6785 167.444 44.6987 160.674 44.6987C153.904 44.6987 149.115 39.7245 149.115 33.5995ZM166.247 33.5995C166.247 30.468 163.944 27.9809 160.674 27.935C157.404 27.9809 155.102 30.468 155.102 33.5995C155.102 36.7309 157.404 39.218 160.674 39.2649C163.944 39.2189 166.247 36.7778 166.247 33.5995Z" fill="white"/>
<path d="M96.1659 52.0654H98.3088C98.8405 52.0654 99.2433 52.2015 99.5154 52.4736C99.7263 52.6845 99.8317 52.9449 99.8317 53.2567V53.2702C99.8317 53.4018 99.8155 53.5181 99.7822 53.619C99.7488 53.7199 99.7056 53.8109 99.6506 53.892C99.5956 53.9731 99.5317 54.0443 99.4596 54.1056C99.3866 54.1669 99.3091 54.22 99.2253 54.2633C99.4929 54.3642 99.7047 54.5021 99.8579 54.676C100.012 54.8499 100.089 55.0914 100.089 55.3996V55.4131C100.089 55.6249 100.048 55.8096 99.9669 55.9682C99.8858 56.1268 99.7687 56.2584 99.6173 56.3647C99.4659 56.4702 99.2829 56.5495 99.0703 56.6026C98.8567 56.6558 98.6206 56.6819 98.3611 56.6819H96.165V52.0663L96.1659 52.0654ZM98.8234 53.4279C98.8234 53.2747 98.7666 53.1585 98.6522 53.0774C98.5377 52.9963 98.3728 52.9566 98.1574 52.9566H97.1554V53.9263H98.0917C98.316 53.9263 98.4936 53.8884 98.626 53.8118C98.7576 53.7352 98.8243 53.6118 98.8243 53.4415V53.4279H98.8234ZM99.0802 55.2771C99.0802 55.123 99.0207 55.0013 98.9027 54.9112C98.7837 54.8211 98.5927 54.776 98.3287 54.776H97.1554V55.7916H98.362C98.5864 55.7916 98.7621 55.7511 98.8892 55.67C99.0162 55.5888 99.0802 55.4627 99.0802 55.2906V55.2771Z" fill="white"/>
<path d="M103.083 54.8617L101.31 52.0664H102.496L103.598 53.9191L104.719 52.0664H105.872L104.099 54.8419V56.682H103.083V54.8617Z" fill="white"/>
<path d="M110.593 52.0654H111.609V53.892H113.481V52.0654H114.497V56.681H113.481V54.8283H111.609V56.681H110.593V52.0654Z" fill="white"/>
<path d="M116.705 52.0654H117.721V56.681H116.705V52.0654Z" fill="white"/>
<path d="M122.152 56.7604C121.791 56.7604 121.462 56.7009 121.166 56.5819C120.87 56.463 120.615 56.2981 120.401 56.0872C120.187 55.8764 120.022 55.6258 119.904 55.3357C119.785 55.0455 119.725 54.7292 119.725 54.3859V54.3724C119.725 54.0426 119.785 53.7344 119.906 53.446C120.027 53.1585 120.195 52.9053 120.411 52.6873C120.626 52.4692 120.881 52.298 121.176 52.1727C121.471 52.0475 121.793 51.9844 122.146 51.9844C122.352 51.9844 122.54 51.9988 122.71 52.0276C122.879 52.0565 123.036 52.097 123.181 52.1493C123.326 52.2025 123.462 52.2682 123.59 52.3475C123.717 52.4268 123.841 52.5169 123.96 52.6179L123.32 53.3892C123.231 53.3144 123.144 53.2487 123.056 53.191C122.967 53.1342 122.876 53.0856 122.782 53.0459C122.687 53.0063 122.585 52.9756 122.475 52.954C122.365 52.9324 122.245 52.9207 122.113 52.9207C121.928 52.9207 121.756 52.9594 121.596 53.036C121.435 53.1126 121.295 53.2162 121.174 53.346C121.053 53.4757 120.959 53.6271 120.89 53.8011C120.822 53.975 120.788 54.1606 120.788 54.3579V54.3715C120.788 54.5823 120.823 54.777 120.89 54.9554C120.958 55.1338 121.055 55.2879 121.18 55.4204C121.306 55.552 121.453 55.6547 121.622 55.7268C121.791 55.7989 121.979 55.8358 122.186 55.8358C122.564 55.8358 122.883 55.7439 123.142 55.5592V54.8995H122.12V54.0227H124.124V56.0268C123.887 56.2287 123.604 56.4017 123.277 56.5441C122.95 56.6865 122.575 56.7586 122.153 56.7586L122.152 56.7604Z" fill="white"/>
<path d="M126.154 52.0654H127.169V53.892H129.042V52.0654H130.057V56.681H129.042V54.8283H127.169V56.681H126.154V52.0654Z" fill="white"/>
<path d="M133.862 56.7477C133.511 56.7477 133.165 56.6874 132.827 56.5666C132.488 56.4459 132.181 56.2602 131.904 56.0097L132.504 55.2906C132.715 55.4618 132.931 55.5988 133.154 55.6997C133.375 55.8006 133.619 55.8511 133.882 55.8511C134.093 55.8511 134.257 55.8124 134.373 55.7358C134.489 55.6592 134.548 55.5519 134.548 55.4159V55.4024C134.548 55.3366 134.536 55.278 134.512 55.2275C134.487 55.1771 134.441 55.1302 134.373 55.0861C134.304 55.0419 134.211 54.9977 134.089 54.9545C133.968 54.9103 133.811 54.8644 133.618 54.8157C133.384 54.7589 133.174 54.695 132.985 54.6247C132.796 54.5544 132.636 54.4679 132.504 54.3642C132.372 54.2606 132.27 54.1327 132.198 53.9786C132.125 53.8245 132.089 53.6334 132.089 53.4045V53.391C132.089 53.1802 132.128 52.99 132.208 52.8206C132.287 52.6512 132.398 52.5052 132.541 52.3818C132.683 52.2583 132.855 52.1637 133.052 52.0979C133.249 52.0321 133.467 51.9988 133.704 51.9988C134.043 51.9988 134.354 52.0492 134.637 52.1502C134.921 52.2511 135.181 52.3962 135.418 52.5854L134.891 53.3505C134.685 53.2099 134.482 53.0991 134.285 53.0171C134.086 52.936 133.889 52.8954 133.691 52.8954C133.493 52.8954 133.345 52.9342 133.246 53.0108C133.147 53.0873 133.097 53.1838 133.097 53.2973V53.3108C133.097 53.3856 133.111 53.4505 133.14 53.5055C133.169 53.5604 133.22 53.61 133.295 53.6542C133.37 53.6983 133.472 53.7398 133.602 53.7794C133.731 53.8191 133.895 53.865 134.093 53.9182C134.325 53.9795 134.533 54.0489 134.716 54.1255C134.898 54.202 135.052 54.2949 135.178 54.4021C135.303 54.5102 135.398 54.6364 135.462 54.7815C135.526 54.9266 135.557 55.1005 135.557 55.3023V55.3158C135.557 55.5447 135.516 55.7475 135.432 55.9259C135.348 56.1043 135.232 56.253 135.082 56.3747C134.933 56.4954 134.755 56.5882 134.548 56.6513C134.341 56.7153 134.113 56.7468 133.862 56.7468V56.7477Z" fill="white"/>
<path d="M137.494 52.0654H139.381C139.657 52.0654 139.905 52.1042 140.122 52.1808C140.339 52.2574 140.524 52.3664 140.676 52.507C140.828 52.6476 140.944 52.8161 141.026 53.0116C141.107 53.2072 141.148 53.4234 141.148 53.6613V53.6748C141.148 53.9434 141.099 54.1786 141.003 54.3804C140.906 54.5823 140.773 54.7517 140.603 54.8878C140.434 55.0238 140.237 55.1266 140.01 55.1942C139.783 55.2626 139.54 55.296 139.281 55.296H138.51V56.681H137.494V52.0654ZM139.315 54.393C139.57 54.393 139.767 54.3264 139.908 54.193C140.048 54.0596 140.119 53.8947 140.119 53.6974V53.6839C140.119 53.4568 140.045 53.2838 139.898 53.1657C139.75 53.0477 139.549 52.9882 139.294 52.9882H138.509V54.3921H139.314L139.315 54.393Z" fill="white"/>
<path d="M142.954 52.0654H145.064C145.649 52.0654 146.097 52.2213 146.409 52.534C146.673 52.798 146.805 53.1495 146.805 53.5892V53.6028C146.805 53.9767 146.714 54.2813 146.531 54.5156C146.348 54.7499 146.11 54.9229 145.816 55.0329L146.943 56.681H145.756L144.767 55.2041H143.969V56.681H142.954V52.0654H142.954ZM144.998 54.3074C145.249 54.3074 145.441 54.2489 145.575 54.1308C145.709 54.0128 145.776 53.8551 145.776 53.6586V53.6451C145.776 53.4261 145.706 53.2621 145.565 53.1531C145.424 53.0441 145.229 52.9891 144.978 52.9891H143.97V54.3074H144.998Z" fill="white"/>
<path d="M148.823 52.0654H149.838V56.681H148.823V52.0654Z" fill="white"/>
<path d="M152.047 52.0654H152.983L155.146 54.9076V52.0654H156.148V56.681H155.285L153.05 53.7469V56.681H152.048V52.0654H152.047Z" fill="white"/>
<path d="M160.533 56.7604C160.172 56.7604 159.843 56.7009 159.547 56.5819C159.25 56.463 158.995 56.2981 158.782 56.0872C158.568 55.8764 158.403 55.6258 158.284 55.3357C158.166 55.0455 158.106 54.7292 158.106 54.3859V54.3724C158.106 54.0426 158.166 53.7344 158.287 53.446C158.408 53.1585 158.576 52.9053 158.792 52.6873C159.007 52.4692 159.262 52.298 159.557 52.1727C159.852 52.0475 160.174 51.9844 160.526 51.9844C160.733 51.9844 160.921 51.9988 161.091 52.0276C161.26 52.0565 161.417 52.097 161.562 52.1493C161.707 52.2025 161.843 52.2682 161.971 52.3475C162.098 52.4268 162.222 52.5169 162.34 52.6179L161.701 53.3892C161.612 53.3144 161.525 53.2487 161.437 53.191C161.348 53.1342 161.257 53.0856 161.163 53.0459C161.068 53.0063 160.966 52.9756 160.856 52.954C160.746 52.9324 160.626 52.9207 160.494 52.9207C160.309 52.9207 160.137 52.9594 159.977 53.036C159.816 53.1126 159.676 53.2162 159.555 53.346C159.434 53.4757 159.34 53.6271 159.271 53.8011C159.203 53.975 159.169 54.1606 159.169 54.3579V54.3715C159.169 54.5823 159.204 54.777 159.271 54.9554C159.339 55.1338 159.436 55.2879 159.561 55.4204C159.687 55.552 159.834 55.6547 160.003 55.7268C160.172 55.7989 160.36 55.8358 160.567 55.8358C160.945 55.8358 161.264 55.7439 161.523 55.5592V54.8995H160.501V54.0227H162.505V56.0268C162.268 56.2287 161.985 56.4017 161.658 56.5441C161.331 56.6865 160.956 56.7586 160.534 56.7586L160.533 56.7604Z" fill="white"/>
<path d="M33.6455 0H34.6422V0.99665L33.9942 12.86L33.8447 16.4988L32.4993 40.076L32.1505 46.656C30.6556 46.0081 29.1597 45.5098 27.5151 45.1611L28.3622 26.0201L20.7855 37.2356L16.0005 44.0644C10.5676 44.0644 5.5825 45.061 2.29248 45.8585C0.797501 42.0702 0 37.9322 0 33.7951C0 15.0038 15.203 0 33.6455 0Z" fill="#F95C15"/>
<path d="M37.9827 0.348633C54.6311 2.34283 67.4911 16.4987 67.4911 33.6959C67.4911 42.4188 64.2011 50.3443 58.7681 56.2764C58.6186 56.426 58.4194 56.6251 58.2698 56.7747L37.9827 0.348633Z" fill="#F95C15"/>
<path d="M33.7455 67.1999C37.8349 67.1999 41.7539 66.4718 45.3818 65.1399C40.249 64.556 36.0272 61.3597 32.93 59.1321C30.3492 57.2767 27.2069 54.9382 20.6954 54.7814C15.6265 54.5724 11.5399 56.1367 9.75653 57.1848C15.8734 63.3683 24.3621 67.1999 33.7464 67.1999H33.7455Z" fill="white"/>
</g>
<defs>
<clipPath id="clip0_14378_625">
<rect width="172.235" height="67.2" fill="white"/>
</clipPath>
</defs>
</svg>
